Coordinates
version=1
nRows=10
nColumns=27
inDegrees=yes

Units are S.I. units (second, meters, Newtons, ...)
If the header above contains a line with 'inDegrees', this indicates whether rotational values are in degrees (yes) or radians (no).

endheader
time	pelvis_rotation	pelvis_tilt	pelvis_list	pelvis_tx	pelvis_ty	pelvis_tz	hip_flexion_r	hip_adduction_r	hip_rotation_r	knee_angle_r	knee_rotation_r	knee_adduction_r	knee_angle_r_beta	ankle_angle_r	subtalar_angle_r	mtp_angle_r	hip_flexion_l	hip_adduction_l	hip_rotation_l	knee_angle_l	knee_rotation_l	knee_adduction_l	knee_angle_l_beta	ankle_angle_l	subtalar_angle_l	mtp_angle_l
      6.13500000	     11.29185574	    -39.41653929	      7.93860931	     -0.09398772	      0.65434301	     -1.16480687	    104.23137784	    -45.43241677	      1.16384047	     74.30903790	      0.00000000	      9.63877086	      1.29693738	      4.77460146	      0.00000000	      0.00000000	     99.88851185	    -23.21652738	     -3.26826197	     65.46154112	      0.00000000	     -9.82253453	      1.14251943	     -1.50614167	      0.00000000	      0.00000000
      6.14000000	     11.24683548	    -39.33192176	      7.91599770	     -0.09341039	      0.65470150	     -1.16496567	    104.02972586	    -45.42777771	      1.10462644	     74.24219384	      0.00000000	      9.64122328	      1.29577073	      4.75787264	      0.00000000	      0.00000000	     99.72445320	    -23.23863675	     -3.29106916	     65.44147996	      0.00000000	     -9.82312462	      1.14216929	     -1.46358385	      0.00000000	      0.00000000
      6.14500000	     11.22377720	    -39.26528376	      7.91288257	     -0.09278706	      0.65506808	     -1.16513664	    103.86034438	    -45.44158665	      1.05412285	     74.18971817	      0.00000000	      9.64240215	      1.29485485	      4.76972265	      0.00000000	      0.00000000	     99.57371552	    -23.24903701	     -3.33200790	     65.42620621	      0.00000000	     -9.82313088	      1.14190272	     -1.44477380	      0.00000000	      0.00000000
      6.15000000	     11.08036982	    -39.20194854	      7.96099749	     -0.09225897	      0.65545652	     -1.16530330	    103.79632603	    -45.29543702	      1.18332395	     74.12203090	      0.00000000	      9.64352779	      1.29367349	      4.76302873	      0.00000000	      0.00000000	     99.35031428	    -23.38306358	     -3.50697010	     65.39834725	      0.00000000	     -9.82423351	      1.14141648	     -1.40587255	      0.00000000	      0.00000000
      6.15500000	     10.71832729	    -39.17238454	      7.78342249	     -0.09183726	      0.65595040	     -1.16530268	    103.56258630	    -44.87791564	      1.22215182	     73.99039593	      0.00000000	      9.35619531	      1.29137602	      4.70740927	      0.00000000	      0.00000000	     99.20304818	    -23.67327784	     -3.51208464	     65.36432317	      0.00000000	     -9.67338763	      1.14082265	     -1.42827283	      0.00000000	      0.00000000
      6.16000000	     11.27651296	    -39.02592006	      7.87289450	     -0.09080379	      0.65633103	     -1.16573695	    103.17155335	    -45.62098228	      0.74513699	     73.97394810	      0.00000000	      9.65102070	      1.29108896	      4.77153127	      0.00000000	      0.00000000	     99.11172027	    -23.13586684	     -3.33236725	     65.34433483	      0.00000000	     -9.82401914	      1.14047379	     -1.32938245	      0.00000000	      0.00000000
      6.16500000	     10.45357880	    -39.10130003	      7.95633463	     -0.09075463	      0.65670585	     -1.16566765	    103.58776906	    -44.58578146	      1.60161137	     73.88015759	      0.00000000	      9.35191168	      1.28945200	      4.66966213	      0.00000000	      0.00000000	     98.77456179	    -23.94432833	     -3.94793674	     65.31005370	      0.00000000	     -9.67650871	      1.13987547	     -1.34791707	      0.00000000	      0.00000000
      6.17000000	     11.38062693	    -38.86317609	      7.74603491	     -0.08927988	      0.65731604	     -1.16616182	    102.50888131	    -45.84721845	      0.29490918	     73.79428626	      0.00000000	      9.65900881	      1.28795326	      4.80240889	      0.00000000	      0.00000000	     98.85606463	    -22.99210182	     -3.20169299	     65.28310952	      0.00000000	     -9.82462487	      1.13940521	     -1.24745606	      0.00000000	      0.00000000
      6.17500000	     11.13560858	    -38.85336215	      7.97193528	     -0.08886476	      0.65769682	     -1.16636357	    102.77967966	    -45.53363254	      0.80395274	     73.74838122	      0.00000000	      9.65522152	      1.28715207	      4.75616780	      0.00000000	      0.00000000	     98.55447210	    -23.26332014	     -3.65843427	     65.24533377	      0.00000000	     -9.82588682	      1.13874590	     -1.22706487	      0.00000000	      0.00000000
      6.18000000	     11.04324182	    -38.81146723	      7.96874370	     -0.08823950	      0.65821215	     -1.16656063	    102.62695678	    -45.45761516	      0.79542148	     73.65574238	      0.00000000	      9.65813700	      1.28553522	      4.75314248	      0.00000000	      0.00000000	     98.38197190	    -23.34363852	     -3.75174128	     65.21090554	      0.00000000	     -9.82694864	      1.13814501	     -1.19567328	      0.00000000	      0.00000000
